<svg width="64" height="64" version="1.1" xmlns="http://www.w3.org/2000/svg">
 <circle cx="32" cy="33" r="28" style="opacity:.2"/>
 <circle cx="32" cy="32" r="28" style="fill:#e4e4e4"/>
 <path d="M 32,4 A 28,28 0 0 0 4,32 28,28 0 0 0 4.0332031,32.5 28,28 0 0 1 32,5 28,28 0 0 1 59.966797,32.5 28,28 0 0 0 60,32 28,28 0 0 0 32,4 Z" style="fill:#ffffff;opacity:.2"/>
 <g transform="translate(5.5088534e-5,1.0000021)" style="opacity:.2">
  <path d="m32 20c-0.519046-8.28e-4 -1.036829 0.238-1.400391 0.601562l-19.599609 19.398438c-0.659967 0.659967-0.459328 2.480605 0 3 1.324601 1.497824 3.010079 0.989978 4 0l11-11v-2c0-3.313708 2.686292-6 6-6s6 2.686292 6 6v2l11 11c0.98992 0.989978 2.675398 1.497824 4 0 0.459327-0.519395 0.663357-2.343441 0-3l-19.599609-19.398438c-0.362101-0.358389-0.881344-0.600735-1.400391-0.601562z"/>
  <path d="m28 34.4-4 4.4 4 2.801562s2.069071-2.601562 4-2.601562 4 2.6 4 2.6l4-2.8-4-4.4c-1.104384 1.005055-2.506748 1.599681-4 1.6-1.493252-3.19e-4 -2.895616-0.594945-4-1.6z"/>
  <circle cx="32" cy="30" r="2"/>
 </g>
 <g>
  <path d="m32 20c-0.519046-8.28e-4 -1.036829 0.238-1.400391 0.601562l-19.599609 19.398438c-0.659967 0.659967-0.459328 2.480605 0 3 1.324601 1.497824 3.010079 0.989978 4 0l11-11v-2c0-3.313708 2.686292-6 6-6s6 2.686292 6 6v2l11 11c0.98992 0.989978 2.675398 1.497824 4 0 0.459327-0.519395 0.663357-2.343441 0-3l-19.599609-19.398438c-0.362101-0.358389-0.881344-0.600735-1.400391-0.601562z" style="fill:#4f4f4f"/>
  <path d="m28 34.4-4 4.4 4 2.801562s2.069071-2.601562 4-2.601562 4 2.6 4 2.6l4-2.8-4-4.4c-1.104384 1.005055-2.506748 1.599681-4 1.6-1.493252-3.19e-4 -2.895616-0.594945-4-1.6z" style="fill:#4f4f4f"/>
  <circle cx="32" cy="30" r="2" style="fill:#4f4f4f"/>
 </g>
</svg>
