<svg width="22" height="22" version="1.1" xmlns="http://www.w3.org/2000/svg">
 <circle cx="11" cy="11.5" r="10" style="opacity:.2"/>
 <circle cx="11" cy="11" r="10" style="fill:#e4e4e4"/>
 <path d="M 11,1 A 10,10 0 0 0 1,11 10,10 0 0 0 1.015625,11.25 10,10 0 0 1 11,1.5 10,10 0 0 1 20.984375,11.25 10,10 0 0 0 21,11 10,10 0 0 0 11,1 Z" style="fill:#ffffff;opacity:.2"/>
 <g transform="matrix(.5 0 0 .5 -1 -.499537)" style="opacity:.2">
  <circle cx="24" cy="23" r="1.5"/>
  <path d="m24.001953 15.469075c-0.370747-5.91e-4 -0.742266 0.271237-1.001953 0.530925l-14 14c-0.4714047 0.471405-0.328091 1.48675 0 1.857747 0.9461436 1.069874 2.292914 0.84938 3 0.142253l8-8s-5.7e-5 -0.08225 0-1c0-2.209139 1.790861-4 4-4s4 1.790861 4 4c5.7e-5 0.91771 0 1 0 1l8 8c0.707086 0.707127 2.053856 1.069874 3 0 0.328091-0.370997 0.471405-1.528595 0-2l-14-14c-0.257322-0.257322-0.627299-0.530334-0.998047-0.530925z"/>
  <path d="m21.171875 25.685872-3.171875 3.314128 3 2s1.620765-2 3-2 3 2 3 2l3-2-3.171875-3.314128c-0.750022 0.750182-1.76732 1.313968-2.828125 1.314128-1.060805-1.6e-4 -2.078103-0.563946-2.828125-1.314128z"/>
 </g>
 <g transform="matrix(.5 0 0 .5 -1 -1)">
  <circle cx="24" cy="23" r="1.5" style="fill:#4f4f4f"/>
  <path d="m24.001953 15.469075c-0.370747-5.91e-4 -0.742266 0.271237-1.001953 0.530925l-14 14c-0.4714047 0.471405-0.328091 1.48675 0 1.857747 0.9461436 1.069874 2.292914 0.84938 3 0.142253l8-8s-5.7e-5 -0.08225 0-1c0-2.209139 1.790861-4 4-4s4 1.790861 4 4c5.7e-5 0.91771 0 1 0 1l8 8c0.707086 0.707127 2.053856 1.069874 3 0 0.328091-0.370997 0.471405-1.528595 0-2l-14-14c-0.257322-0.257322-0.627299-0.530334-0.998047-0.530925z" style="fill:#4f4f4f"/>
  <path d="m21.171875 25.685872-3.171875 3.314128 3 2s1.620765-2 3-2 3 2 3 2l3-2-3.171875-3.314128c-0.750022 0.750182-1.76732 1.313968-2.828125 1.314128-1.060805-1.6e-4 -2.078103-0.563946-2.828125-1.314128z" style="fill:#4f4f4f"/>
 </g>
</svg>
