<svg width="48" height="48" version="1.1" xmlns="http://www.w3.org/2000/svg">
 <circle cx="24" cy="25" r="20" style="opacity:.2"/>
 <circle cx="24" cy="24" r="20" style="fill:#e4e4e4"/>
 <path d="M 24,4 A 20,20 0 0 0 4,24 20,20 0 0 0 4.0215,24.582 20,20 0 0 1 24,5 20,20 0 0 1 43.979,24.418 20,20 0 0 0 44,24 20,20 0 0 0 24,4 Z" style="fill:#ffffff;opacity:.2"/>
 <g transform="translate(0 .99992701)" style="opacity:.2">
  <circle cx="24" cy="22.857748" r="1.5"/>
  <path d="m24.001953 15.469075c-0.370747-5.91e-4 -0.742266 0.128984-1.001953 0.388672l-14 14c-0.4714047 0.471405-0.328091 1.629003 0 2 0.9461436 1.069874 2.292914 0.707127 3 0l8-8s-5.7e-5 -0.08225 0-1c0-2.209139 1.790861-4 4-4s4 1.790861 4 4c5.7e-5 0.91771 0 1 0 1l8 8c0.707086 0.707127 2.053856 1.069874 3 0 0.328091-0.370997 0.471405-1.528595 0-2l-14-14c-0.257322-0.257322-0.627299-0.388081-0.998047-0.388672z"/>
  <path d="m21.171875 25.685872-3.171875 3.171875 3 2s1.620765-2 3-2 3 2 3 2l3-2-3.171875-3.171875a4 4 0 0 1-2.828125 1.171875 4 4 0 0 1-2.828125-1.171875z"/>
 </g>
 <g>
  <circle cx="24" cy="22.857748" r="1.5" style="fill:#4f4f4f"/>
  <path d="m24.001953 15.469075c-0.370747-5.91e-4 -0.742266 0.128984-1.001953 0.388672l-14 14c-0.4714047 0.471405-0.328091 1.629003 0 2 0.9461436 1.069874 2.292914 0.707127 3 0l8-8s-5.7e-5 -0.08225 0-1c0-2.209139 1.790861-4 4-4s4 1.790861 4 4c5.7e-5 0.91771 0 1 0 1l8 8c0.707086 0.707127 2.053856 1.069874 3 0 0.328091-0.370997 0.471405-1.528595 0-2l-14-14c-0.257322-0.257322-0.627299-0.388081-0.998047-0.388672z" style="fill:#4f4f4f"/>
  <path d="m21.171875 25.685872-3.171875 3.171875 3 2s1.620765-2 3-2 3 2 3 2l3-2-3.171875-3.171875a4 4 0 0 1-2.828125 1.171875 4 4 0 0 1-2.828125-1.171875z" style="fill:#4f4f4f"/>
 </g>
</svg>
