<svg width="32" height="32" version="1.1" xmlns="http://www.w3.org/2000/svg">
 <circle cx="16" cy="17" r="14" style="opacity:.2"/>
 <circle cx="16" cy="16" r="14" style="fill:#e4e4e4"/>
 <path d="M 16,2 A 14,14 0 0 0 2,16 14,14 0 0 0 2.0332031,16.5 14,14 0 0 1 16,3 14,14 0 0 1 29.966797,16.5 14,14 0 0 0 30,16 14,14 0 0 0 16,2 Z" style="fill:#ffffff;opacity:.2"/>
 <g>
  <g style="opacity:.2">
   <circle cx="16" cy="16" r="1"/>
   <path d="m16 11.000001c-0.259523-4.14e-4 -0.517438 0.119001-0.699219 0.300781l-9.800781 9.798828c-0.3299833 0.329984-0.2296637 1.140693 0 1.400391 0.6623005 0.748912 1.6046492 0.494989 2.0996094 0l5.4003906-5.5v-1c0-1.656854 1.343146-3 3-3s3 1.343146 3 3v1l5.400391 5.5c0.49496 0.494989 1.437308 0.748912 2.099609 0 0.229664-0.259698 0.329983-1.070407 0-1.400391l-9.800781-9.798828c-0.180125-0.180125-0.439695-0.300368-0.699219-0.300781z"/>
   <path d="m14 18.2-2 2.200391 2 1.399609s1.034535-1.399609 2-1.399609c0.965464 0 2 1.399609 2 1.399609l2-1.4-2-2.2c-0.552441 0.502754-1.253037 0.800084-2 0.8-0.746963 8.4e-5 -1.447559-0.297246-2-0.8z"/>
  </g>
  <circle cx="16" cy="15" r="1" style="fill:#4f4f4f"/>
  <path d="m16 10c-0.259523-4.14e-4 -0.517438 0.119001-0.699219 0.300781l-9.800781 9.798828c-0.3299833 0.329984-0.2296637 1.140693 0 1.400391 0.6623005 0.748912 1.6046492 0.494989 2.0996094 0l5.4003906-5.5v-1c0-1.656854 1.343146-3 3-3s3 1.343146 3 3v1l5.400391 5.5c0.49496 0.494989 1.437308 0.748912 2.099609 0 0.229664-0.259698 0.329983-1.070407 0-1.400391l-9.800781-9.798828c-0.180125-0.180125-0.439695-0.300368-0.699219-0.300781z" style="fill:#4f4f4f"/>
  <path d="m14 17.2-2 2.200391 2 1.399609s1.034535-1.399609 2-1.399609c0.965464 0 2 1.399609 2 1.399609l2-1.4-2-2.2c-0.552441 0.502754-1.253037 0.800084-2 0.8-0.746963 8.4e-5 -1.447559-0.297246-2-0.8z" style="fill:#4f4f4f"/>
 </g>
</svg>
