<svg width="16" height="16" version="1.1" xmlns="http://www.w3.org/2000/svg">
 <circle cx="8" cy="8" r="8" style="fill:#e4e4e4"/>
 <g transform="matrix(.39999998 0 0 .4 -1.5999995 -1.5999998)">
  <ellipse cx="24" cy="22.75" rx="1.2500001" ry="1.25" style="fill:#4f4f4f"/>
  <path d="m24 15.499999c-0.370747-5.91e-4 -0.74129 0.240312-1.000977 0.5l-13.999024 14.25c-0.4714047 0.471405-0.328091 0.879003 0 1.25 0.9461436 1.069874 1.7929138 0.707127 2.4999998 0l8.749966-8.75c0-2.071068 1.678932-3.75 3.75-3.75s3.75 1.678932 3.75 3.75c0 0 5.840337 5.929529 8.750036 8.75 0.707086 0.707127 1.553786 1.069874 2.49993 0 0.328091-0.370997 0.471405-0.778595 0-1.25l-13.998954-14.25c-0.257322-0.257322-0.630229-0.499409-1.000977-0.5z" style="fill:#4f4f4f"/>
  <path d="m21.75 25.749999-3.750977 3.25 3.00293 1.748047s1.618812-1.748047 2.998047-1.748047 2.998047 1.855469 2.998047 1.855469l3.00293-1.855469-4.000977-3.25c-0.633367 0.450151-1.222961 0.749075-2 0.75-0.777039-9.25e-4 -1.616633-0.299849-2.25-0.75z" style="fill:#4f4f4f"/>
 </g>
</svg>
